<?xml version="1.0" encoding="UTF-8"?>
<svg id="Ebene_2" data-name="Ebene 2" xmlns="http://www.w3.org/2000/svg" viewBox="0 0 686.54 317.07">
  <defs>
    <style>
      .cls-1 {
        fill: none;
        stroke: #fff;
        stroke-linecap: square;
        stroke-miterlimit: 10;
        stroke-width: 3.65px;
      }

      .cls-2 {
        fill: #58bdbe;
      }

      .cls-2, .cls-3, .cls-4, .cls-5, .cls-6 {
        stroke-width: 0px;
      }

      .cls-3 {
        fill: #3fc663;
      }

      .cls-4 {
        fill: #fff;
      }

      .cls-5 {
        fill: #edeef0;
      }

      .cls-6 {
        fill: #061411;
      }
    </style>
  </defs>
  <g id="Ebene_2-2" data-name="Ebene 2">
    <rect class="cls-5" width="686.54" height="317.07" rx="29.06" ry="29.06"/>
    <g>
      <g>
        <path class="cls-2" d="M282.25,67.65l10.49-5.34c5.05-2.6,8.53-7.55,9.21-13.23l1.47-11.91c1.57-12.69,15.68-19.26,26.17-12.2l9.9,6.61c4.7,3.18,10.68,3.77,15.88,1.57l10.83-4.61c11.56-4.9,24.25,4.26,23.52,17.05l-.69,11.96c-.34,5.73,2.16,11.27,6.66,14.8l9.36,7.3c10,7.79,8.57,23.52-2.65,29.25l-10.49,5.29c-5.05,2.6-8.53,7.55-9.21,13.23l-1.47,11.91c-1.57,12.69-15.68,19.26-26.17,12.2,0,0-4.81-4.22-10.68-7-5.87-2.78-12.39-2.44-15.93-.96l-9.89,4.43c-11.56,4.9-24.25-4.26-23.52-17.05l.69-11.96c.34-5.73-2.16-11.27-6.66-14.8l-9.36-7.3c-10.09-7.79-8.67-23.52,2.55-29.25"/>
        <g>
          <g>
            <ellipse class="cls-6" cx="354.32" cy="84.93" rx="6.08" ry="4.02" transform="translate(230.27 427.52) rotate(-83.58)"/>
            <circle class="cls-4" cx="354.13" cy="83.23" r="1.47"/>
          </g>
          <g>
            <ellipse class="cls-6" cx="330.74" cy="82.64" rx="6.08" ry="4.02" transform="translate(211.6 402.05) rotate(-83.58)"/>
            <circle class="cls-4" cx="330.51" cy="80.98" r="1.47"/>
          </g>
          <path class="cls-6" d="M362.26,107.1c-.59,5.29-11.61,13.18-23.91,11.76-12.3-1.42-21.27-11.51-20.68-16.81s10.53-2.11,22.83-.73c12.3,1.37,22.34.49,21.76,5.78Z"/>
        </g>
      </g>
      <g>
        <rect class="cls-3" x="115.69" y="188.16" width="453.78" height="104.72" rx="22.21" ry="22.21"/>
        <g>
          <g>
            <path class="cls-4" d="M222.6,246.81c0-1-.35-1.77-1.05-2.31s-1.97-1.09-3.8-1.64c-1.83-.55-3.29-1.17-4.38-1.84-2.07-1.3-3.11-3-3.11-5.09,0-1.83.75-3.34,2.24-4.53,1.49-1.19,3.43-1.78,5.82-1.78,1.58,0,2.99.29,4.23.88,1.24.58,2.21,1.41,2.92,2.49.71,1.08,1.06,2.27,1.06,3.59h-3.94c0-1.19-.37-2.12-1.12-2.79-.75-.67-1.81-1.01-3.2-1.01-1.29,0-2.29.28-3.01.83-.71.55-1.07,1.32-1.07,2.31,0,.83.38,1.53,1.16,2.09.77.56,2.04,1.1,3.81,1.62,1.77.53,3.19,1.12,4.27,1.8,1.07.67,1.86,1.44,2.36,2.31s.75,1.89.75,3.05c0,1.9-.73,3.4-2.18,4.52s-3.42,1.68-5.91,1.68c-1.65,0-3.16-.3-4.54-.91-1.38-.61-2.45-1.45-3.22-2.52s-1.15-2.32-1.15-3.75h3.95c0,1.29.43,2.29,1.28,3,.85.71,2.08,1.06,3.67,1.06,1.38,0,2.41-.28,3.1-.84.69-.56,1.04-1.29,1.04-2.21Z"/>
            <path class="cls-4" d="M234.42,231.65v4.11h2.98v2.81h-2.98v9.44c0,.65.13,1.11.38,1.4.25.29.71.43,1.37.43.44,0,.88-.05,1.33-.16v2.94c-.87.24-1.7.36-2.5.36-2.92,0-4.38-1.61-4.38-4.83v-9.58h-2.78v-2.81h2.78v-4.11h3.8Z"/>
            <path class="cls-4" d="M250.4,252.67c-.17-.32-.31-.85-.44-1.58-1.21,1.26-2.69,1.89-4.44,1.89s-3.08-.48-4.16-1.45c-1.07-.97-1.61-2.17-1.61-3.59,0-1.8.67-3.18,2.01-4.15,1.34-.96,3.25-1.45,5.74-1.45h2.33v-1.11c0-.88-.25-1.58-.73-2.1-.49-.53-1.23-.79-2.23-.79-.87,0-1.57.22-2.12.65-.55.43-.83.98-.83,1.65h-3.8c0-.93.31-1.79.92-2.6.61-.81,1.45-1.44,2.51-1.9,1.06-.46,2.24-.69,3.54-.69,1.98,0,3.56.5,4.73,1.49,1.18,1,1.78,2.39,1.81,4.2v7.62c0,1.52.21,2.73.64,3.64v.27h-3.88ZM246.23,249.94c.75,0,1.46-.18,2.12-.55.66-.36,1.16-.85,1.49-1.47v-3.19h-2.05c-1.41,0-2.46.25-3.17.73-.71.49-1.06,1.18-1.06,2.08,0,.73.24,1.31.73,1.74s1.13.65,1.95.65Z"/>
            <path class="cls-4" d="M266.46,239.23c-.5-.08-1.02-.12-1.55-.12-1.74,0-2.91.67-3.52,2v11.56h-3.8v-16.91h3.62l.09,1.89c.92-1.47,2.19-2.2,3.81-2.2.54,0,.99.07,1.34.22l-.02,3.56Z"/>
            <path class="cls-4" d="M274.4,231.65v4.11h2.98v2.81h-2.98v9.44c0,.65.13,1.11.38,1.4.25.29.71.43,1.37.43.44,0,.88-.05,1.33-.16v2.94c-.87.24-1.7.36-2.5.36-2.92,0-4.38-1.61-4.38-4.83v-9.58h-2.78v-2.81h2.78v-4.11h3.8Z"/>
            <path class="cls-4" d="M295.09,244.39c0,2.61-.59,4.7-1.78,6.26s-2.78,2.34-4.78,2.34c-1.85,0-3.34-.61-4.45-1.83v8.02h-3.8v-23.41h3.5l.16,1.72c1.11-1.35,2.63-2.03,4.55-2.03,2.06,0,3.68.77,4.85,2.3s1.76,3.67,1.76,6.4v.23ZM291.31,244.06c0-1.69-.34-3.03-1.01-4.02s-1.63-1.48-2.88-1.48c-1.55,0-2.67.64-3.34,1.92v7.5c.69,1.31,1.81,1.97,3.38,1.97,1.21,0,2.15-.49,2.84-1.46.68-.97,1.02-2.45,1.02-4.43Z"/>
            <path class="cls-4" d="M307.15,239.23c-.5-.08-1.02-.12-1.55-.12-1.74,0-2.91.67-3.52,2v11.56h-3.8v-16.91h3.62l.09,1.89c.92-1.47,2.19-2.2,3.81-2.2.54,0,.99.07,1.34.22l-.02,3.56Z"/>
            <path class="cls-4" d="M308.27,244.06c0-1.66.33-3.15.98-4.48s1.58-2.35,2.77-3.06,2.55-1.07,4.09-1.07c2.28,0,4.13.73,5.55,2.2s2.19,3.42,2.3,5.84l.02.89c0,1.67-.32,3.16-.96,4.47s-1.56,2.33-2.75,3.05c-1.19.72-2.57,1.08-4.13,1.08-2.39,0-4.29-.79-5.73-2.38-1.43-1.59-2.15-3.71-2.15-6.35v-.19ZM312.07,244.39c0,1.74.36,3.1,1.08,4.09s1.72,1.48,3,1.48,2.28-.5,2.99-1.5c.71-1,1.07-2.46,1.07-4.39,0-1.71-.37-3.06-1.1-4.06s-1.73-1.5-2.99-1.5-2.22.49-2.95,1.48c-.73.98-1.09,2.46-1.09,4.41Z"/>
            <path class="cls-4" d="M326.54,244.09c0-2.62.62-4.72,1.85-6.29s2.87-2.35,4.91-2.35c1.93,0,3.44.67,4.55,2.02l.17-1.7h3.42v16.39c0,2.22-.69,3.97-2.07,5.25-1.38,1.28-3.24,1.92-5.59,1.92-1.24,0-2.45-.26-3.63-.77-1.18-.52-2.08-1.19-2.7-2.02l1.8-2.28c1.17,1.38,2.6,2.08,4.31,2.08,1.26,0,2.25-.34,2.98-1.02.73-.68,1.09-1.69,1.09-3.01v-1.14c-1.09,1.22-2.55,1.83-4.38,1.83-1.98,0-3.6-.79-4.85-2.36-1.26-1.57-1.88-3.75-1.88-6.53ZM330.32,244.42c0,1.7.35,3.03,1.04,4.01.69.97,1.65,1.46,2.88,1.46,1.53,0,2.67-.66,3.41-1.97v-7.44c-.72-1.28-1.84-1.92-3.38-1.92-1.25,0-2.22.5-2.91,1.48-.69.99-1.04,2.45-1.04,4.38Z"/>
            <path class="cls-4" d="M354.2,239.23c-.5-.08-1.02-.12-1.55-.12-1.74,0-2.91.67-3.52,2v11.56h-3.8v-16.91h3.62l.09,1.89c.92-1.47,2.19-2.2,3.81-2.2.54,0,.99.07,1.34.22l-.02,3.56Z"/>
            <path class="cls-4" d="M366.23,252.67c-.17-.32-.31-.85-.44-1.58-1.21,1.26-2.69,1.89-4.44,1.89s-3.08-.48-4.16-1.45c-1.07-.97-1.61-2.17-1.61-3.59,0-1.8.67-3.18,2.01-4.15,1.34-.96,3.25-1.45,5.74-1.45h2.33v-1.11c0-.88-.25-1.58-.73-2.1-.49-.53-1.23-.79-2.23-.79-.87,0-1.57.22-2.12.65-.55.43-.83.98-.83,1.65h-3.8c0-.93.31-1.79.92-2.6.61-.81,1.45-1.44,2.51-1.9,1.06-.46,2.24-.69,3.54-.69,1.98,0,3.56.5,4.73,1.49,1.18,1,1.78,2.39,1.81,4.2v7.62c0,1.52.21,2.73.64,3.64v.27h-3.88ZM362.06,249.94c.75,0,1.46-.18,2.12-.55.66-.36,1.16-.85,1.49-1.47v-3.19h-2.05c-1.41,0-2.46.25-3.17.73-.71.49-1.06,1.18-1.06,2.08,0,.73.24,1.31.73,1.74s1.13.65,1.95.65Z"/>
            <path class="cls-4" d="M377.01,235.76l.11,1.77c1.19-1.39,2.81-2.08,4.88-2.08,2.26,0,3.81.86,4.64,2.59,1.23-1.73,2.96-2.59,5.19-2.59,1.86,0,3.25.52,4.16,1.55.91,1.03,1.38,2.55,1.4,4.56v11.11h-3.8v-11c0-1.07-.23-1.86-.7-2.36s-1.25-.75-2.33-.75c-.87,0-1.57.23-2.12.7s-.93,1.07-1.15,1.82l.02,11.59h-3.8v-11.12c-.05-1.99-1.07-2.98-3.05-2.98-1.52,0-2.6.62-3.23,1.86v12.25h-3.8v-16.91h3.58Z"/>
            <path class="cls-4" d="M404.85,235.76l.11,1.77c1.19-1.39,2.81-2.08,4.88-2.08,2.26,0,3.81.86,4.64,2.59,1.23-1.73,2.96-2.59,5.19-2.59,1.86,0,3.25.52,4.16,1.55.91,1.03,1.38,2.55,1.4,4.56v11.11h-3.8v-11c0-1.07-.23-1.86-.7-2.36s-1.25-.75-2.33-.75c-.87,0-1.57.23-2.12.7s-.93,1.07-1.15,1.82l.02,11.59h-3.8v-11.12c-.05-1.99-1.07-2.98-3.05-2.98-1.52,0-2.6.62-3.23,1.86v12.25h-3.8v-16.91h3.58Z"/>
          </g>
          <g id="upload">
            <polyline class="cls-1" points="455.24 231.92 471.69 215.47 488.15 231.92"/>
            <line class="cls-1" x1="490.78" y1="264.64" x2="452.69" y2="264.64"/>
            <line class="cls-1" x1="471.73" y1="252.49" x2="471.73" y2="215.47"/>
          </g>
        </g>
      </g>
    </g>
  </g>
</svg>