<?xml version="1.0" encoding="UTF-8"?>
<svg id="Ebene_2" data-name="Ebene 2" xmlns="http://www.w3.org/2000/svg" viewBox="0 0 688.11 173.03">
  <defs>
    <style>
      .cls-1 {
        fill: #e61c72;
      }

      .cls-1, .cls-2, .cls-3, .cls-4 {
        stroke-width: 0px;
      }

      .cls-2 {
        fill: none;
      }

      .cls-3 {
        fill: #1d1d21;
      }

      .cls-4 {
        fill: #fff;
      }
    </style>
  </defs>
  <g id="Ebene_2-2" data-name="Ebene 2">
    <rect class="cls-2" width="688.11" height="173.03"/>
    <g>
      <g>
        <rect class="cls-3" x="69.65" y="6.74" width="548.81" height="160.45" rx="12.51" ry="12.51"/>
        <g>
          <rect class="cls-1" x="170" y="54.97" width="8.53" height="15.84" rx="1.14" ry="1.14" transform="translate(348.53 125.77) rotate(180)"/>
          <rect class="cls-1" x="145.61" y="54.97" width="8.53" height="15.84" rx="1.14" ry="1.14" transform="translate(299.75 125.77) rotate(180)"/>
          <rect class="cls-1" x="194.4" y="54.97" width="8.53" height="15.84" rx="1.14" ry="1.14" transform="translate(397.32 125.77) rotate(180)"/>
          <rect class="cls-1" x="121.22" y="54.97" width="8.53" height="15.84" rx="1.14" ry="1.14" transform="translate(250.96 125.77) rotate(180)"/>
          <rect class="cls-1" x="96.82" y="54.97" width="8.53" height="15.84" rx="1.14" ry="1.14" transform="translate(202.17 125.77) rotate(180)"/>
          <g>
            <rect class="cls-1" x="170" y="79.05" width="8.53" height="15.84" rx="1.14" ry="1.14" transform="translate(348.53 173.93) rotate(180)"/>
            <rect class="cls-4" x="145.61" y="79.05" width="8.53" height="15.84" rx="1.14" ry="1.14" transform="translate(299.75 173.93) rotate(180)"/>
            <rect class="cls-4" x="194.4" y="79.05" width="8.53" height="15.84" rx="1.14" ry="1.14" transform="translate(397.32 173.93) rotate(180)"/>
            <rect class="cls-4" x="121.22" y="79.05" width="8.53" height="15.84" rx="1.14" ry="1.14" transform="translate(250.96 173.93) rotate(180)"/>
            <rect class="cls-1" x="96.82" y="79.05" width="8.53" height="15.84" rx="1.14" ry="1.14" transform="translate(202.17 173.93) rotate(180)"/>
          </g>
          <g>
            <rect class="cls-4" x="170" y="103.28" width="8.53" height="15.84" rx="1.14" ry="1.14" transform="translate(348.53 222.39) rotate(180)"/>
            <rect class="cls-1" x="145.61" y="103.28" width="8.53" height="15.84" rx="1.14" ry="1.14" transform="translate(299.75 222.39) rotate(180)"/>
            <rect class="cls-4" x="194.4" y="103.28" width="8.53" height="15.84" rx="1.14" ry="1.14" transform="translate(397.32 222.39) rotate(180)"/>
            <rect class="cls-1" x="121.22" y="103.28" width="8.53" height="15.84" rx="1.14" ry="1.14" transform="translate(250.96 222.39) rotate(180)"/>
            <rect class="cls-1" x="96.82" y="103.28" width="8.53" height="15.84" rx="1.14" ry="1.14" transform="translate(202.17 222.39) rotate(180)"/>
          </g>
          <g>
            <rect class="cls-4" x="170" y="127.51" width="8.53" height="15.84" rx="1.14" ry="1.14" transform="translate(348.53 270.85) rotate(180)"/>
            <rect class="cls-4" x="145.61" y="127.51" width="8.53" height="15.84" rx="1.14" ry="1.14" transform="translate(299.75 270.85) rotate(180)"/>
            <rect class="cls-4" x="194.4" y="127.51" width="8.53" height="15.84" rx="1.14" ry="1.14" transform="translate(397.32 270.85) rotate(180)"/>
            <rect class="cls-4" x="121.22" y="127.51" width="8.53" height="15.84" rx="1.14" ry="1.14" transform="translate(250.96 270.85) rotate(180)"/>
            <rect class="cls-1" x="96.82" y="127.51" width="8.53" height="15.84" rx="1.14" ry="1.14" transform="translate(202.17 270.85) rotate(180)"/>
          </g>
          <g>
            <rect class="cls-4" x="170" y="54.82" width="8.53" height="15.84" rx="1.14" ry="1.14" transform="translate(348.53 125.47) rotate(180)"/>
            <rect class="cls-1" x="145.61" y="54.82" width="8.53" height="15.84" rx="1.14" ry="1.14" transform="translate(299.75 125.47) rotate(180)"/>
            <rect class="cls-4" x="194.4" y="54.82" width="8.53" height="15.84" rx="1.14" ry="1.14" transform="translate(397.32 125.47) rotate(180)"/>
            <rect class="cls-1" x="121.22" y="54.82" width="8.53" height="15.84" rx="1.14" ry="1.14" transform="translate(250.96 125.47) rotate(180)"/>
            <rect class="cls-1" x="96.82" y="54.82" width="8.53" height="15.84" rx="1.14" ry="1.14" transform="translate(202.17 125.47) rotate(180)"/>
          </g>
          <g>
            <rect class="cls-4" x="170" y="30.59" width="8.53" height="15.84" rx="1.14" ry="1.14" transform="translate(348.53 77.01) rotate(180)"/>
            <rect class="cls-4" x="145.61" y="30.59" width="8.53" height="15.84" rx="1.14" ry="1.14" transform="translate(299.75 77.01) rotate(180)"/>
            <rect class="cls-4" x="194.4" y="30.59" width="8.53" height="15.84" rx="1.14" ry="1.14" transform="translate(397.32 77.01) rotate(180)"/>
            <rect class="cls-4" x="121.22" y="30.59" width="8.53" height="15.84" rx="1.14" ry="1.14" transform="translate(250.96 77.01) rotate(180)"/>
            <rect class="cls-4" x="96.82" y="30.59" width="8.53" height="15.84" rx="1.14" ry="1.14" transform="translate(202.17 77.01) rotate(180)"/>
          </g>
        </g>
        <rect class="cls-1" x="220.09" y="54.97" width="8.53" height="15.84" rx="1.14" ry="1.14" transform="translate(448.7 125.77) rotate(180)"/>
        <rect class="cls-1" x="220.09" y="79.05" width="8.53" height="15.84" rx="1.14" ry="1.14" transform="translate(448.7 173.93) rotate(180)"/>
        <rect class="cls-1" x="220.09" y="103.28" width="8.53" height="15.84" rx="1.14" ry="1.14" transform="translate(448.7 222.39) rotate(180)"/>
        <rect class="cls-1" x="220.09" y="127.51" width="8.53" height="15.84" rx="1.14" ry="1.14" transform="translate(448.7 270.85) rotate(180)"/>
        <rect class="cls-4" x="220.09" y="54.82" width="8.53" height="15.84" rx="1.14" ry="1.14" transform="translate(448.7 125.47) rotate(180)"/>
        <rect class="cls-1" x="220.09" y="30.59" width="8.53" height="15.84" rx="1.14" ry="1.14" transform="translate(448.7 77.01) rotate(180)"/>
        <rect class="cls-4" x="365.62" y="79.05" width="8.53" height="15.84" rx="1.14" ry="1.14" transform="translate(739.78 173.93) rotate(180)"/>
        <rect class="cls-4" x="365.62" y="103.28" width="8.53" height="15.84" rx="1.14" ry="1.14" transform="translate(739.78 222.39) rotate(180)"/>
        <rect class="cls-4" x="365.62" y="127.51" width="8.53" height="15.84" rx="1.14" ry="1.14" transform="translate(739.78 270.85) rotate(180)"/>
        <rect class="cls-4" x="365.62" y="54.82" width="8.53" height="15.84" rx="1.14" ry="1.14" transform="translate(739.78 125.47) rotate(180)"/>
        <rect class="cls-4" x="365.62" y="30.59" width="8.53" height="15.84" rx="1.14" ry="1.14" transform="translate(739.78 77.01) rotate(180)"/>
        <g>
          <rect class="cls-1" x="462.22" y="54.97" width="8.53" height="15.84" rx="1.14" ry="1.14" transform="translate(932.96 125.77) rotate(180)"/>
          <rect class="cls-1" x="437.82" y="54.97" width="8.53" height="15.84" rx="1.14" ry="1.14" transform="translate(884.17 125.77) rotate(180)"/>
          <rect class="cls-1" x="413.43" y="54.97" width="8.53" height="15.84" rx="1.14" ry="1.14" transform="translate(835.39 125.77) rotate(180)"/>
          <rect class="cls-1" x="389.04" y="54.97" width="8.53" height="15.84" rx="1.14" ry="1.14" transform="translate(786.6 125.77) rotate(180)"/>
          <rect class="cls-4" x="462.22" y="79.05" width="8.53" height="15.84" rx="1.14" ry="1.14" transform="translate(932.96 173.93) rotate(180)"/>
          <rect class="cls-1" x="437.82" y="79.05" width="8.53" height="15.84" rx="1.14" ry="1.14" transform="translate(884.17 173.93) rotate(180)"/>
          <rect class="cls-1" x="413.43" y="79.05" width="8.53" height="15.84" rx="1.14" ry="1.14" transform="translate(835.39 173.93) rotate(180)"/>
          <rect class="cls-1" x="389.04" y="79.05" width="8.53" height="15.84" rx="1.14" ry="1.14" transform="translate(786.6 173.93) rotate(180)"/>
          <rect class="cls-4" x="462.22" y="103.28" width="8.53" height="15.84" rx="1.14" ry="1.14" transform="translate(932.96 222.39) rotate(180)"/>
          <rect class="cls-4" x="437.82" y="103.28" width="8.53" height="15.84" rx="1.14" ry="1.14" transform="translate(884.17 222.39) rotate(180)"/>
          <rect class="cls-4" x="413.43" y="103.28" width="8.53" height="15.84" rx="1.14" ry="1.14" transform="translate(835.39 222.39) rotate(180)"/>
          <rect class="cls-1" x="389.04" y="103.28" width="8.53" height="15.84" rx="1.14" ry="1.14" transform="translate(786.6 222.39) rotate(180)"/>
          <rect class="cls-1" x="462.22" y="127.51" width="8.53" height="15.84" rx="1.14" ry="1.14" transform="translate(932.96 270.85) rotate(180)"/>
          <rect class="cls-1" x="437.82" y="127.51" width="8.53" height="15.84" rx="1.14" ry="1.14" transform="translate(884.17 270.85) rotate(180)"/>
          <rect class="cls-1" x="413.43" y="127.51" width="8.53" height="15.84" rx="1.14" ry="1.14" transform="translate(835.39 270.85) rotate(180)"/>
          <rect class="cls-4" x="389.04" y="127.51" width="8.53" height="15.84" rx="1.14" ry="1.14" transform="translate(786.6 270.85) rotate(180)"/>
          <rect class="cls-1" x="462.22" y="54.82" width="8.53" height="15.84" rx="1.14" ry="1.14" transform="translate(932.96 125.47) rotate(180)"/>
          <rect class="cls-4" x="437.82" y="54.82" width="8.53" height="15.84" rx="1.14" ry="1.14" transform="translate(884.17 125.47) rotate(180)"/>
          <rect class="cls-4" x="413.43" y="54.82" width="8.53" height="15.84" rx="1.14" ry="1.14" transform="translate(835.39 125.47) rotate(180)"/>
          <rect class="cls-1" x="389.04" y="54.82" width="8.53" height="15.84" rx="1.14" ry="1.14" transform="translate(786.6 125.47) rotate(180)"/>
          <rect class="cls-4" x="462.22" y="30.59" width="8.53" height="15.84" rx="1.14" ry="1.14" transform="translate(932.96 77.01) rotate(180)"/>
          <rect class="cls-1" x="437.82" y="30.59" width="8.53" height="15.84" rx="1.14" ry="1.14" transform="translate(884.17 77.01) rotate(180)"/>
          <rect class="cls-1" x="413.43" y="30.59" width="8.53" height="15.84" rx="1.14" ry="1.14" transform="translate(835.39 77.01) rotate(180)"/>
          <rect class="cls-4" x="389.04" y="30.59" width="8.53" height="15.84" rx="1.14" ry="1.14" transform="translate(786.6 77.01) rotate(180)"/>
        </g>
        <g>
          <rect class="cls-1" x="317.66" y="54.97" width="8.53" height="15.84" rx="1.14" ry="1.14" transform="translate(643.85 125.77) rotate(180)"/>
          <rect class="cls-1" x="293.27" y="54.97" width="8.53" height="15.84" rx="1.14" ry="1.14" transform="translate(595.06 125.77) rotate(180)"/>
          <rect class="cls-1" x="342.05" y="54.97" width="8.53" height="15.84" rx="1.14" ry="1.14" transform="translate(692.63 125.77) rotate(180)"/>
          <rect class="cls-1" x="268.87" y="54.97" width="8.53" height="15.84" rx="1.14" ry="1.14" transform="translate(546.27 125.77) rotate(180)"/>
          <rect class="cls-1" x="244.48" y="54.97" width="8.53" height="15.84" rx="1.14" ry="1.14" transform="translate(497.49 125.77) rotate(180)"/>
          <rect class="cls-1" x="317.66" y="79.05" width="8.53" height="15.84" rx="1.14" ry="1.14" transform="translate(643.85 173.93) rotate(180)"/>
          <rect class="cls-1" x="293.27" y="79.05" width="8.53" height="15.84" rx="1.14" ry="1.14" transform="translate(595.06 173.93) rotate(180)"/>
          <rect class="cls-4" x="342.05" y="79.05" width="8.53" height="15.84" rx="1.14" ry="1.14" transform="translate(692.63 173.93) rotate(180)"/>
          <rect class="cls-1" x="268.87" y="79.05" width="8.53" height="15.84" rx="1.14" ry="1.14" transform="translate(546.27 173.93) rotate(180)"/>
          <rect class="cls-4" x="244.48" y="79.05" width="8.53" height="15.84" rx="1.14" ry="1.14" transform="translate(497.49 173.93) rotate(180)"/>
          <rect class="cls-4" x="317.66" y="103.28" width="8.53" height="15.84" rx="1.14" ry="1.14" transform="translate(643.85 222.39) rotate(180)"/>
          <rect class="cls-4" x="293.27" y="103.28" width="8.53" height="15.84" rx="1.14" ry="1.14" transform="translate(595.06 222.39) rotate(180)"/>
          <rect class="cls-4" x="342.05" y="103.28" width="8.53" height="15.84" rx="1.14" ry="1.14" transform="translate(692.63 222.39) rotate(180)"/>
          <rect class="cls-1" x="268.87" y="103.28" width="8.53" height="15.84" rx="1.14" ry="1.14" transform="translate(546.27 222.39) rotate(180)"/>
          <rect class="cls-4" x="244.48" y="103.28" width="8.53" height="15.84" rx="1.14" ry="1.14" transform="translate(497.49 222.39) rotate(180)"/>
          <rect class="cls-1" x="317.66" y="127.51" width="8.53" height="15.84" rx="1.14" ry="1.14" transform="translate(643.85 270.85) rotate(180)"/>
          <rect class="cls-1" x="293.27" y="127.51" width="8.53" height="15.84" rx="1.14" ry="1.14" transform="translate(595.06 270.85) rotate(180)"/>
          <rect class="cls-1" x="342.05" y="127.51" width="8.53" height="15.84" rx="1.14" ry="1.14" transform="translate(692.63 270.85) rotate(180)"/>
          <rect class="cls-4" x="268.87" y="127.51" width="8.53" height="15.84" rx="1.14" ry="1.14" transform="translate(546.27 270.85) rotate(180)"/>
          <rect class="cls-4" x="244.48" y="127.51" width="8.53" height="15.84" rx="1.14" ry="1.14" transform="translate(497.49 270.85) rotate(180)"/>
          <rect class="cls-4" x="317.66" y="54.82" width="8.53" height="15.84" rx="1.14" ry="1.14" transform="translate(643.85 125.47) rotate(180)"/>
          <rect class="cls-4" x="293.27" y="54.82" width="8.53" height="15.84" rx="1.14" ry="1.14" transform="translate(595.06 125.47) rotate(180)"/>
          <rect class="cls-4" x="342.05" y="54.82" width="8.53" height="15.84" rx="1.14" ry="1.14" transform="translate(692.63 125.47) rotate(180)"/>
          <rect class="cls-1" x="268.87" y="54.82" width="8.53" height="15.84" rx="1.14" ry="1.14" transform="translate(546.27 125.47) rotate(180)"/>
          <rect class="cls-4" x="244.48" y="54.82" width="8.53" height="15.84" rx="1.14" ry="1.14" transform="translate(497.49 125.47) rotate(180)"/>
          <rect class="cls-4" x="317.66" y="30.59" width="8.53" height="15.84" rx="1.14" ry="1.14" transform="translate(643.85 77.01) rotate(180)"/>
          <rect class="cls-4" x="293.27" y="30.59" width="8.53" height="15.84" rx="1.14" ry="1.14" transform="translate(595.06 77.01) rotate(180)"/>
          <rect class="cls-4" x="342.05" y="30.59" width="8.53" height="15.84" rx="1.14" ry="1.14" transform="translate(692.63 77.01) rotate(180)"/>
          <rect class="cls-1" x="268.87" y="30.59" width="8.53" height="15.84" rx="1.14" ry="1.14" transform="translate(546.27 77.01) rotate(180)"/>
          <rect class="cls-4" x="244.48" y="30.59" width="8.53" height="15.84" rx="1.14" ry="1.14" transform="translate(497.49 77.01) rotate(180)"/>
        </g>
      </g>
      <g>
        <rect class="cls-1" x="559.79" y="54.97" width="8.53" height="15.84" rx="1.14" ry="1.14" transform="translate(1128.11 125.77) rotate(180)"/>
        <rect class="cls-1" x="535.4" y="54.97" width="8.53" height="15.84" rx="1.14" ry="1.14" transform="translate(1079.32 125.77) rotate(180)"/>
        <rect class="cls-1" x="584.18" y="54.97" width="8.53" height="15.84" rx="1.14" ry="1.14" transform="translate(1176.9 125.77) rotate(180)"/>
        <rect class="cls-1" x="511" y="54.97" width="8.53" height="15.84" rx="1.14" ry="1.14" transform="translate(1030.54 125.77) rotate(180)"/>
        <rect class="cls-1" x="486.61" y="54.97" width="8.53" height="15.84" rx="1.14" ry="1.14" transform="translate(981.75 125.77) rotate(180)"/>
        <rect class="cls-1" x="559.79" y="79.05" width="8.53" height="15.84" rx="1.14" ry="1.14" transform="translate(1128.11 173.93) rotate(180)"/>
        <rect class="cls-1" x="535.4" y="79.05" width="8.53" height="15.84" rx="1.14" ry="1.14" transform="translate(1079.32 173.93) rotate(180)"/>
        <rect class="cls-4" x="584.18" y="79.05" width="8.53" height="15.84" rx="1.14" ry="1.14" transform="translate(1176.9 173.93) rotate(180)"/>
        <rect class="cls-1" x="511" y="79.05" width="8.53" height="15.84" rx="1.14" ry="1.14" transform="translate(1030.54 173.93) rotate(180)"/>
        <rect class="cls-4" x="486.61" y="79.05" width="8.53" height="15.84" rx="1.14" ry="1.14" transform="translate(981.75 173.93) rotate(180)"/>
        <rect class="cls-4" x="559.79" y="103.28" width="8.53" height="15.84" rx="1.14" ry="1.14" transform="translate(1128.11 222.39) rotate(180)"/>
        <rect class="cls-4" x="535.4" y="103.28" width="8.53" height="15.84" rx="1.14" ry="1.14" transform="translate(1079.32 222.39) rotate(180)"/>
        <rect class="cls-4" x="584.18" y="103.28" width="8.53" height="15.84" rx="1.14" ry="1.14" transform="translate(1176.9 222.39) rotate(180)"/>
        <rect class="cls-1" x="511" y="103.28" width="8.53" height="15.84" rx="1.14" ry="1.14" transform="translate(1030.54 222.39) rotate(180)"/>
        <rect class="cls-4" x="486.61" y="103.28" width="8.53" height="15.84" rx="1.14" ry="1.14" transform="translate(981.75 222.39) rotate(180)"/>
        <rect class="cls-1" x="559.79" y="127.51" width="8.53" height="15.84" rx="1.14" ry="1.14" transform="translate(1128.11 270.85) rotate(180)"/>
        <rect class="cls-1" x="535.4" y="127.51" width="8.53" height="15.84" rx="1.14" ry="1.14" transform="translate(1079.32 270.85) rotate(180)"/>
        <rect class="cls-1" x="584.18" y="127.51" width="8.53" height="15.84" rx="1.14" ry="1.14" transform="translate(1176.9 270.85) rotate(180)"/>
        <rect class="cls-4" x="511" y="127.51" width="8.53" height="15.84" rx="1.14" ry="1.14" transform="translate(1030.54 270.85) rotate(180)"/>
        <rect class="cls-4" x="486.61" y="127.51" width="8.53" height="15.84" rx="1.14" ry="1.14" transform="translate(981.75 270.85) rotate(180)"/>
        <rect class="cls-4" x="559.79" y="54.82" width="8.53" height="15.84" rx="1.14" ry="1.14" transform="translate(1128.11 125.47) rotate(180)"/>
        <rect class="cls-4" x="535.4" y="54.82" width="8.53" height="15.84" rx="1.14" ry="1.14" transform="translate(1079.32 125.47) rotate(180)"/>
        <rect class="cls-4" x="584.18" y="54.82" width="8.53" height="15.84" rx="1.14" ry="1.14" transform="translate(1176.9 125.47) rotate(180)"/>
        <rect class="cls-1" x="511" y="54.82" width="8.53" height="15.84" rx="1.14" ry="1.14" transform="translate(1030.54 125.47) rotate(180)"/>
        <rect class="cls-4" x="486.61" y="54.82" width="8.53" height="15.84" rx="1.14" ry="1.14" transform="translate(981.75 125.47) rotate(180)"/>
        <rect class="cls-4" x="559.79" y="30.59" width="8.53" height="15.84" rx="1.14" ry="1.14" transform="translate(1128.11 77.01) rotate(180)"/>
        <rect class="cls-4" x="535.4" y="30.59" width="8.53" height="15.84" rx="1.14" ry="1.14" transform="translate(1079.32 77.01) rotate(180)"/>
        <rect class="cls-4" x="584.18" y="30.59" width="8.53" height="15.84" rx="1.14" ry="1.14" transform="translate(1176.9 77.01) rotate(180)"/>
        <rect class="cls-1" x="511" y="30.59" width="8.53" height="15.84" rx="1.14" ry="1.14" transform="translate(1030.54 77.01) rotate(180)"/>
        <rect class="cls-4" x="486.61" y="30.59" width="8.53" height="15.84" rx="1.14" ry="1.14" transform="translate(981.75 77.01) rotate(180)"/>
      </g>
    </g>
  </g>
</svg>