<?xml version="1.0" encoding="UTF-8"?>
<svg id="Ebene_2" data-name="Ebene 2" xmlns="http://www.w3.org/2000/svg" viewBox="0 0 685.16 160.45">
  <defs>
    <style>
      .cls-1 {
        fill: #41c49e;
      }

      .cls-1, .cls-2, .cls-3, .cls-4, .cls-5, .cls-6, .cls-7, .cls-8, .cls-9 {
        stroke-width: 0px;
      }

      .cls-2 {
        fill: #ff4e00;
      }

      .cls-3 {
        fill: none;
      }

      .cls-4 {
        fill: #061411;
      }

      .cls-5 {
        fill: #58bdbe;
      }

      .cls-6 {
        fill: #48484c;
      }

      .cls-7 {
        fill: #8073e5;
      }

      .cls-8 {
        fill: #1d1d21;
      }

      .cls-9 {
        fill: #fff;
      }
    </style>
  </defs>
  <g id="Ebene_2-2" data-name="Ebene 2">
    <rect class="cls-3" y="25.38" width="685.16" height="97.21"/>
    <g>
      <g id="connect">
        <g id="connect-2" data-name="connect">
          <path class="cls-8" d="M297.95,82.91c-.9,0-1.81-.26-2.59-.79-2.02-1.37-5.96-3.66-9.61-3.66-3.89,0-7.72,2.28-9.66,3.65-1.13.8-2.59,1-3.9.53l-.1-.04c-1.92-.68-3.11-2.56-2.89-4.58.32-2.97.44-7.3-2.14-10.67-3.04-3.96-5.59-5.44-7.19-5.99-1.5-.51-2.56-1.82-2.76-3.38h0s-.01-.09-.01-.14c0-.04,0-.08-.01-.13h0c-.09-1.43.35-3.26,2.75-4.44,2.24-1.1,5.32-3.02,7.27-5.86,2.84-4.14,2.41-9.05,2.21-10.46-.24-1.71.29-3.23,1.42-4.07,1.58-1.17,3.74-1.22,5.36-.12,2.02,1.36,5.96,3.66,9.61,3.66,3.88,0,7.72-2.28,9.66-3.65,1.13-.79,2.59-.99,3.9-.53l.11.04c1.91.68,3.1,2.56,2.88,4.57-.32,2.97-.44,7.3,2.14,10.68,3.04,3.96,5.59,5.44,7.19,5.99,1.5.51,2.56,1.82,2.76,3.38h0s.01.09.01.14c0,.04,0,.08.01.13h0c.09,1.43-.35,3.26-2.75,4.44-2.24,1.1-5.32,3.01-7.27,5.86-2.84,4.14-2.41,9.05-2.21,10.46.24,1.71-.29,3.23-1.42,4.07-.82.61-1.8.92-2.77.92Z"/>
          <g>
            <g id="smile">
              <g>
                <circle class="cls-9" cx="277.31" cy="49.07" r="1.73"/>
                <circle class="cls-9" cx="282.89" cy="49.07" r="1.73"/>
                <circle class="cls-9" cx="288.48" cy="49.07" r="1.73"/>
                <circle class="cls-9" cx="294.06" cy="49.07" r="1.73"/>
              </g>
            </g>
            <g id="smile-2" data-name="smile">
              <g>
                <circle class="cls-9" cx="277.31" cy="54.53" r="1.73"/>
                <circle class="cls-9" cx="282.89" cy="54.53" r="1.73"/>
                <circle class="cls-9" cx="288.48" cy="54.53" r="1.73"/>
                <circle class="cls-9" cx="294.06" cy="54.53" r="1.73"/>
              </g>
            </g>
            <g id="smile-3" data-name="smile">
              <g>
                <circle class="cls-9" cx="277.31" cy="59.99" r="1.73"/>
                <circle class="cls-9" cx="282.89" cy="59.99" r="1.73"/>
                <circle class="cls-9" cx="288.48" cy="59.99" r="1.73"/>
                <circle class="cls-9" cx="294.06" cy="59.99" r="1.73"/>
              </g>
            </g>
            <g id="smile-4" data-name="smile">
              <g>
                <circle class="cls-9" cx="277.31" cy="65.45" r="1.73"/>
                <circle class="cls-9" cx="282.89" cy="65.45" r="1.73"/>
                <circle class="cls-9" cx="288.48" cy="65.45" r="1.73"/>
                <circle class="cls-9" cx="294.06" cy="65.45" r="1.73"/>
              </g>
            </g>
          </g>
        </g>
      </g>
      <g>
        <circle class="cls-2" cx="474.45" cy="73" r="51.57"/>
        <circle class="cls-1" cx="631.43" cy="73" r="51.57"/>
        <path class="cls-9" d="M653.46,55.96l-28.61,28.61c-1.11,1.11-2.92,1.11-4.03,0l-8.9-8.9c-1.11-1.11-2.92-1.11-4.03,0l-2.4,2.4c-1.11,1.11-1.11,2.92,0,4.03l15.33,15.33c1.11,1.11,2.92,1.11,4.03,0l35.04-35.04c1.11-1.11,1.11-2.92,0-4.03l-2.4-2.4c-1.11-1.11-2.92-1.11-4.03,0Z"/>
        <g>
          <path class="cls-9" d="M479.8,77.12l1.39-29.61c.09-1.86-1.4-3.41-3.26-3.41h-9.33c-1.86,0-3.34,1.55-3.26,3.41l1.39,29.61c.08,1.74,1.51,3.11,3.26,3.11h6.56c1.74,0,3.17-1.37,3.26-3.11Z"/>
          <path class="cls-9" d="M479.01,87.43h0c-1.57-1.4-3.54-2.1-5.84-2.1s-4.27.71-5.84,2.1c-1.62,1.44-2.45,3.3-2.45,5.53s.82,4.09,2.45,5.53c1.57,1.39,3.54,2.1,5.84,2.1s4.27-.71,5.84-2.1c1.62-1.44,2.45-3.3,2.45-5.53s-.82-4.09-2.45-5.53Z"/>
        </g>
        <g>
          <path class="cls-6" d="M217.66,105.37h2.88c-.07,1.56-.39,2.91-.95,4.04-.56,1.13-1.37,2-2.42,2.6-1.06.6-2.38.91-3.96.91-1.14,0-2.16-.22-3.08-.67-.92-.45-1.7-1.09-2.35-1.93-.65-.84-1.15-1.85-1.49-3.02-.34-1.18-.52-2.5-.52-3.97v-4.2c0-1.46.17-2.78.52-3.95.35-1.18.85-2.18,1.52-3.02.66-.84,1.47-1.48,2.42-1.93.95-.45,2.03-.67,3.24-.67,1.48,0,2.73.29,3.76.88,1.03.59,1.82,1.45,2.38,2.58.56,1.13.87,2.51.93,4.15h-2.88c-.07-1.2-.26-2.17-.56-2.93-.3-.75-.75-1.31-1.34-1.67-.59-.36-1.35-.54-2.29-.54-.83,0-1.55.17-2.16.5-.61.33-1.11.81-1.5,1.43-.39.62-.68,1.37-.88,2.23-.19.87-.29,1.84-.29,2.91v4.23c0,1,.08,1.93.24,2.8.16.87.42,1.62.78,2.27.36.65.83,1.16,1.41,1.52.58.37,1.29.55,2.12.55,1.05,0,1.88-.17,2.5-.52.61-.34,1.07-.89,1.37-1.64s.49-1.73.59-2.94Z"/>
          <path class="cls-6" d="M232.75,102.35l.03,2.03h-1.92c-.66,0-1.25.07-1.79.22-.54.15-1,.36-1.38.63-.39.28-.68.62-.88,1.02s-.3.87-.3,1.39c0,.68.09,1.22.28,1.62.19.4.47.69.84.87.38.18.85.27,1.42.27.7,0,1.31-.16,1.84-.48.53-.32.95-.71,1.24-1.17.3-.46.43-.88.41-1.28l.61,1.3c-.04.41-.17.85-.4,1.32-.22.47-.53.93-.93,1.36-.4.43-.86.79-1.4,1.06-.54.28-1.14.41-1.8.41-.98,0-1.84-.19-2.57-.56s-1.3-.93-1.71-1.66c-.41-.73-.61-1.63-.61-2.7,0-.81.14-1.56.42-2.25s.7-1.28,1.25-1.79c.55-.5,1.25-.9,2.09-1.18.84-.28,1.81-.42,2.91-.42h2.34ZM232.31,109.71v-9.17c0-.67-.1-1.2-.3-1.61s-.51-.7-.91-.89c-.4-.19-.9-.28-1.51-.28s-1.09.12-1.51.36c-.42.24-.75.56-.97.95-.22.4-.34.83-.34,1.31h-2.77c0-.6.13-1.2.4-1.8s.65-1.13,1.15-1.62,1.1-.87,1.8-1.16c.7-.29,1.49-.43,2.37-.43,1.04,0,1.96.17,2.77.51.8.34,1.43.89,1.89,1.65.46.76.69,1.77.69,3.03v8.34c0,.56.04,1.16.13,1.8.09.64.22,1.18.38,1.64v.25h-2.86c-.14-.33-.24-.78-.31-1.34-.07-.56-.11-1.08-.11-1.55Z"/>
          <path class="cls-6" d="M242.33,88.6v24h-2.75v-24h2.75Z"/>
          <path class="cls-6" d="M249.67,88.6v24h-2.75v-24h2.75Z"/>
          <path class="cls-6" d="M254.11,91.21c0-.47.13-.86.39-1.19.26-.32.65-.48,1.17-.48s.91.16,1.18.48c.27.32.4.72.4,1.19s-.13.83-.4,1.15c-.27.32-.66.48-1.18.48s-.91-.16-1.17-.48c-.26-.32-.39-.7-.39-1.15ZM257.02,95.7v16.91h-2.75v-16.91h2.75Z"/>
          <path class="cls-6" d="M260.81,104.96v-1.61c0-1.31.17-2.47.5-3.46.33-.99.8-1.83,1.39-2.49.59-.67,1.29-1.17,2.08-1.51.79-.34,1.64-.51,2.55-.51s1.79.17,2.58.51c.79.34,1.49.84,2.09,1.51.6.67,1.06,1.5,1.4,2.49.33,1,.5,2.15.5,3.46v1.61c0,1.31-.17,2.47-.5,3.46-.33,1-.8,1.83-1.39,2.49-.59.67-1.29,1.17-2.08,1.5-.79.33-1.65.5-2.56.5s-1.77-.17-2.56-.5c-.79-.33-1.49-.83-2.09-1.5-.6-.67-1.07-1.5-1.4-2.49-.33-.99-.5-2.15-.5-3.46ZM263.58,103.35v1.61c0,.93.09,1.74.28,2.44.19.7.45,1.28.8,1.75s.74.82,1.2,1.05c.46.23.96.35,1.5.35.62,0,1.17-.12,1.65-.35.47-.23.87-.59,1.18-1.05s.55-1.05.7-1.75c.16-.7.23-1.51.23-2.44v-1.61c0-.93-.09-1.74-.28-2.43-.19-.69-.45-1.28-.8-1.75-.34-.47-.75-.83-1.21-1.06-.46-.23-.97-.35-1.51-.35s-1.03.12-1.48.35c-.46.23-.86.59-1.2,1.06-.34.47-.6,1.06-.79,1.75-.19.69-.28,1.5-.28,2.43Z"/>
          <path class="cls-6" d="M280.22,98.95v20.16h-2.77v-23.41h2.52l.25,3.25ZM289.67,103.39v1.58c0,1.33-.12,2.5-.37,3.49-.25,1-.6,1.82-1.08,2.48-.47.66-1.05,1.16-1.74,1.48s-1.47.49-2.36.49-1.65-.17-2.3-.51c-.65-.34-1.2-.83-1.64-1.48-.44-.65-.79-1.42-1.05-2.34-.26-.91-.43-1.93-.52-3.07v-2.41c.09-1.2.27-2.27.52-3.23s.6-1.77,1.04-2.44c.44-.67.99-1.18,1.64-1.54.65-.35,1.41-.53,2.29-.53s1.71.16,2.4.47c.69.31,1.28.79,1.75,1.45.47.65.83,1.48,1.07,2.48.24,1.01.36,2.21.36,3.6ZM286.91,104.96v-1.58c0-.94-.07-1.75-.21-2.45-.14-.7-.36-1.28-.66-1.73-.3-.46-.68-.8-1.14-1.03-.46-.23-1.01-.34-1.66-.34-.55,0-1.04.12-1.46.34-.42.23-.78.54-1.09.93-.3.39-.55.83-.75,1.33-.2.5-.34,1.01-.44,1.54v4.73c.18.67.41,1.29.7,1.88.29.59.68,1.07,1.18,1.43.49.37,1.12.55,1.88.55.63,0,1.18-.11,1.64-.34.46-.23.84-.58,1.13-1.04.3-.46.52-1.05.66-1.75s.21-1.52.21-2.46Z"/>
          <path class="cls-6" d="M299.28,112.92c-1.01,0-1.92-.15-2.73-.45s-1.51-.76-2.08-1.38c-.57-.62-1.01-1.4-1.31-2.35-.3-.95-.45-2.07-.45-3.36v-1.91c0-1.49.17-2.75.52-3.78.35-1.03.82-1.86,1.41-2.49.59-.63,1.27-1.09,2.02-1.38.75-.29,1.52-.43,2.31-.43,1.06,0,1.97.17,2.72.52s1.36.85,1.83,1.53c.47.68.81,1.51,1.04,2.5.22.99.34,2.13.34,3.42v1.61h-10.56v-2.36h7.8v-.39c-.04-.88-.16-1.65-.35-2.31-.19-.67-.51-1.19-.95-1.57-.44-.38-1.06-.57-1.86-.57-.51,0-.98.09-1.41.26-.43.17-.8.47-1.11.89-.31.42-.55,1-.72,1.74-.17.74-.26,1.68-.26,2.81v1.91c0,.91.09,1.69.26,2.34.17.65.43,1.19.77,1.61.34.42.75.73,1.25.94.49.2,1.06.3,1.7.3.93,0,1.69-.18,2.3-.54.6-.36,1.13-.82,1.58-1.38l1.45,1.73c-.3.43-.7.84-1.18,1.23s-1.08.71-1.78.95-1.54.37-2.52.37Z"/>
          <path class="cls-6" d="M318.34,99.06v13.55h-2.75v-16.91h2.59l.16,3.36ZM317.78,103.51l-1.28-.05c-.01-1.16.1-2.23.34-3.21.24-.98.6-1.84,1.09-2.57.48-.73,1.09-1.29,1.83-1.7.73-.4,1.59-.6,2.57-.6.65,0,1.25.11,1.8.34.56.22,1.04.58,1.46,1.05.42.48.74,1.09.98,1.84s.35,1.66.35,2.72v11.27h-2.77v-11.12c0-.88-.12-1.59-.35-2.12s-.57-.92-.99-1.16c-.43-.24-.94-.37-1.53-.37-.68,0-1.24.15-1.7.45-.45.3-.81.72-1.08,1.25s-.45,1.14-.56,1.82c-.11.68-.16,1.4-.16,2.16ZM326.89,101.92l-1.84.59c-.01-.93.1-1.82.34-2.67.24-.85.6-1.61,1.07-2.28.47-.67,1.06-1.2,1.77-1.59.71-.39,1.53-.59,2.47-.59.77,0,1.45.12,2.05.36.59.24,1.1.61,1.51,1.1.41.5.72,1.13.93,1.9.21.77.31,1.69.31,2.75v11.11h-2.77v-11.14c0-.95-.12-1.68-.35-2.21-.23-.53-.57-.9-.99-1.11-.43-.21-.94-.32-1.53-.32-.48,0-.9.11-1.27.33-.37.22-.68.52-.93.9-.25.38-.44.82-.57,1.3-.13.49-.2,1.01-.2,1.56Z"/>
          <path class="cls-6" d="M339.74,91.21c0-.47.13-.86.39-1.19.26-.32.65-.48,1.17-.48s.91.16,1.18.48c.27.32.4.72.4,1.19s-.13.83-.4,1.15c-.27.32-.66.48-1.18.48s-.91-.16-1.17-.48c-.26-.32-.39-.7-.39-1.15ZM342.64,95.7v16.91h-2.75v-16.91h2.75Z"/>
          <path class="cls-6" d="M349.78,99.31v13.3h-2.77v-16.91h2.61l.16,3.61ZM349.11,103.51l-1.12-.05c-.01-1.16.12-2.23.4-3.21.28-.98.67-1.84,1.19-2.57.52-.73,1.13-1.29,1.85-1.7.72-.4,1.52-.6,2.39-.6.69,0,1.31.11,1.88.34.56.22,1.04.58,1.44,1.07.4.49.7,1.12.91,1.9.21.78.32,1.72.32,2.84v11.08h-2.77v-11.11c0-.88-.1-1.6-.29-2.13-.19-.54-.48-.93-.88-1.17-.39-.24-.88-.37-1.48-.37-.54,0-1.05.15-1.52.45-.47.3-.88.72-1.23,1.25-.35.53-.62,1.14-.81,1.82-.19.68-.29,1.4-.29,2.16Z"/>
          <path class="cls-6" d="M362.58,91.21c0-.47.13-.86.39-1.19.26-.32.65-.48,1.17-.48s.91.16,1.18.48c.27.32.4.72.4,1.19s-.13.83-.4,1.15c-.27.32-.66.48-1.18.48s-.91-.16-1.17-.48c-.26-.32-.39-.7-.39-1.15ZM365.49,95.7v16.91h-2.75v-16.91h2.75Z"/>
        </g>
      </g>
      <g>
        <rect class="cls-7" x="3.06" width="160.45" height="160.45" rx="12.51" ry="12.51"/>
        <path class="cls-5" d="M23.14,59.6l10.49-5.34c5.05-2.6,8.53-7.55,9.21-13.23l1.47-11.91c1.57-12.69,15.68-19.26,26.17-12.2l9.9,6.61c4.7,3.18,10.68,3.77,15.88,1.57l10.83-4.61c11.56-4.9,24.25,4.26,23.52,17.05l-.69,11.96c-.34,5.73,2.16,11.27,6.66,14.8l9.36,7.3c10,7.79,8.57,23.52-2.65,29.25l-10.49,5.29c-5.05,2.6-8.53,7.55-9.21,13.23l-1.47,11.91c-1.57,12.69-15.68,19.26-26.17,12.2,0,0-4.81-4.22-10.68-7-5.87-2.78-12.39-2.44-15.93-.96l-9.89,4.43c-11.56,4.9-24.25-4.26-23.52-17.05l.69-11.96c.34-5.73-2.16-11.27-6.66-14.8l-9.36-7.3c-10.09-7.79-8.67-23.52,2.55-29.25"/>
        <g>
          <g>
            <ellipse class="cls-4" cx="95.2" cy="76.88" rx="6.08" ry="4.02" transform="translate(8.15 162.88) rotate(-83.58)"/>
            <circle class="cls-9" cx="95.02" cy="75.18" r="1.47"/>
          </g>
          <g>
            <ellipse class="cls-4" cx="71.62" cy="74.59" rx="6.08" ry="4.02" transform="translate(-10.51 137.42) rotate(-83.58)"/>
            <circle class="cls-9" cx="71.4" cy="72.93" r="1.47"/>
          </g>
          <path class="cls-4" d="M103.15,99.05c-.59,5.29-11.61,13.18-23.91,11.76s-21.27-11.51-20.68-16.81c.59-5.29,10.53-2.11,22.83-.73,12.3,1.37,22.34.49,21.76,5.78Z"/>
        </g>
      </g>
    </g>
  </g>
</svg>