<?xml version="1.0" encoding="UTF-8"?>
<svg id="Ebene_2" data-name="Ebene 2" xmlns="http://www.w3.org/2000/svg" viewBox="0 0 685.16 162.5">
  <defs>
    <style>
      .cls-1 {
        fill: none;
      }

      .cls-1, .cls-2, .cls-3, .cls-4, .cls-5, .cls-6, .cls-7 {
        stroke-width: 0px;
      }

      .cls-3 {
        fill: #44c8c8;
      }

      .cls-4 {
        fill: #a6a6a6;
      }

      .cls-5 {
        fill: #8073e5;
      }

      .cls-6 {
        fill: #fff;
      }

      .cls-7 {
        fill: #ff3947;
      }
    </style>
  </defs>
  <g id="Ebene_2-2" data-name="Ebene 2">
    <g>
      <g>
        <rect class="cls-5" x="48.97" y="1.56" width="160.45" height="160.45" rx="12.51" ry="12.51"/>
        <g id="connect">
          <g id="connect-2" data-name="connect">
            <path class="cls-3" d="M157.83,141.45c-2.12,0-4.23-.61-6.06-1.85-4.73-3.2-13.95-8.56-22.52-8.56-9.1,0-18.08,5.35-22.62,8.54-2.66,1.87-6.07,2.33-9.14,1.24l-.24-.08c-4.5-1.6-7.28-6-6.78-10.72.75-6.95,1.04-17.1-5.02-25-7.11-9.28-13.09-12.75-16.84-14.03-3.51-1.19-5.99-4.26-6.47-7.92h0c-.01-.11-.02-.21-.03-.33,0-.1-.02-.19-.02-.29h0c-.21-3.34.83-7.65,6.45-10.41,5.25-2.58,12.46-7.07,17.04-13.73,6.64-9.69,5.64-21.21,5.17-24.51-.57-4,.68-7.56,3.33-9.52,3.7-2.74,8.75-2.86,12.56-.29,4.73,3.2,13.95,8.56,22.52,8.56,9.1,0,18.08-5.35,22.62-8.54,2.65-1.86,6.06-2.33,9.13-1.24l.26.09c4.48,1.58,7.26,5.99,6.75,10.71-.75,6.95-1.04,17.1,5.02,25.01,7.12,9.28,13.09,12.75,16.84,14.02,3.51,1.19,5.99,4.26,6.47,7.92h0c.01.11.02.21.03.32,0,.1.02.2.02.3h0c.21,3.34-.83,7.65-6.45,10.41-5.25,2.58-12.46,7.06-17.04,13.73-6.65,9.69-5.64,21.21-5.18,24.51.57,4-.68,7.56-3.33,9.52-1.92,1.43-4.2,2.14-6.49,2.14Z"/>
            <g>
              <g id="smile">
                <g>
                  <circle class="cls-7" cx="109.48" cy="62.16" r="4.05"/>
                  <circle class="cls-7" cx="122.56" cy="62.16" r="4.05"/>
                  <circle class="cls-7" cx="135.64" cy="62.16" r="4.05"/>
                  <circle class="cls-7" cx="148.72" cy="62.16" r="4.05"/>
                </g>
              </g>
              <g id="smile-2" data-name="smile">
                <g>
                  <circle class="cls-7" cx="109.48" cy="74.96" r="4.05"/>
                  <circle class="cls-7" cx="122.56" cy="74.96" r="4.05"/>
                  <circle class="cls-7" cx="135.64" cy="74.96" r="4.05"/>
                  <circle class="cls-7" cx="148.72" cy="74.96" r="4.05"/>
                </g>
              </g>
              <g id="smile-3" data-name="smile">
                <g>
                  <circle class="cls-7" cx="109.48" cy="87.76" r="4.05"/>
                  <circle class="cls-7" cx="122.56" cy="87.76" r="4.05"/>
                  <circle class="cls-7" cx="135.64" cy="87.76" r="4.05"/>
                  <circle class="cls-7" cx="148.72" cy="87.76" r="4.05"/>
                </g>
              </g>
              <g id="smile-4" data-name="smile">
                <g>
                  <circle class="cls-7" cx="109.48" cy="100.55" r="4.05"/>
                  <circle class="cls-7" cx="122.56" cy="100.55" r="4.05"/>
                  <circle class="cls-7" cx="135.64" cy="100.55" r="4.05"/>
                  <circle class="cls-7" cx="148.72" cy="100.55" r="4.05"/>
                </g>
              </g>
            </g>
          </g>
        </g>
      </g>
      <g>
        <g>
          <g>
            <path class="cls-4" d="M523.94,56.34h-266.98c-.97,0-1.93,0-2.91,0-.81,0-1.62.02-2.44.03-1.78.02-3.56.18-5.32.47-1.76.3-3.46.86-5.04,1.66-1.59.81-3.04,1.87-4.3,3.13-1.27,1.26-2.32,2.71-3.13,4.3-.81,1.59-1.37,3.29-1.66,5.05-.3,1.76-.45,3.53-.48,5.31-.02.81-.03,1.63-.04,2.44v61.34c.01.82.02,1.62.04,2.45.02,1.78.18,3.56.48,5.31.29,1.76.85,3.46,1.66,5.05.8,1.59,1.86,3.03,3.13,4.28,1.26,1.27,2.71,2.32,4.3,3.13,1.59.81,3.29,1.37,5.04,1.67,1.76.29,3.54.45,5.32.47.82.02,1.63.03,2.44.03.97,0,1.93,0,2.91,0h266.98c.95,0,1.92,0,2.88,0,.81,0,1.64-.01,2.45-.03,1.78-.02,3.55-.18,5.31-.47,1.76-.3,3.47-.87,5.06-1.67,1.59-.81,3.04-1.86,4.29-3.13,1.26-1.25,2.32-2.7,3.14-4.28.8-1.59,1.36-3.3,1.64-5.05.3-1.76.46-3.53.49-5.31.01-.82.01-1.62.01-2.45.02-.96.02-1.92.02-2.9v-55.54c0-.97,0-1.94-.02-2.9,0-.81,0-1.63-.01-2.44-.03-1.78-.2-3.56-.49-5.31-.29-1.76-.84-3.46-1.64-5.05-1.64-3.19-4.24-5.79-7.43-7.43-1.6-.8-3.3-1.36-5.06-1.66-1.75-.29-3.53-.45-5.31-.47-.81-.01-1.64-.03-2.45-.03-.95,0-1.92,0-2.88,0h0Z"/>
            <path class="cls-2" d="M254.07,160.18c-.81,0-1.6-.01-2.4-.03-1.66-.02-3.32-.17-4.96-.43-1.53-.26-3.01-.75-4.4-1.45-1.37-.69-2.62-1.61-3.71-2.7-1.1-1.08-2.01-2.33-2.71-3.71-.7-1.38-1.19-2.87-1.44-4.4-.27-1.65-.42-3.31-.44-4.98-.02-.56-.04-2.42-.04-2.42v-61.31s.02-1.83.04-2.37c.02-1.66.17-3.33.44-4.97.25-1.54.74-3.02,1.44-4.41.69-1.37,1.6-2.63,2.69-3.71,1.09-1.09,2.35-2.01,3.72-2.71,1.38-.7,2.86-1.18,4.39-1.44,1.65-.27,3.31-.41,4.98-.44l2.39-.03h272.74l2.42.03c1.65.02,3.3.16,4.93.43,1.54.26,3.04.75,4.43,1.45,2.75,1.42,5,3.67,6.41,6.42.69,1.38,1.17,2.85,1.42,4.38.28,1.66.43,3.33.46,5.01,0,.75,0,1.56,0,2.36.02,1,.02,1.94.02,2.9v55.54c0,.96,0,1.9-.02,2.85,0,.86,0,1.65-.01,2.47-.03,1.65-.18,3.29-.45,4.92-.25,1.54-.73,3.04-1.43,4.43-.7,1.36-1.61,2.6-2.7,3.68-1.08,1.1-2.34,2.01-3.71,2.71-1.39.71-2.89,1.2-4.43,1.46-1.64.27-3.3.41-4.96.43-.78.02-1.59.03-2.38.03h-2.88s-269.87,0-269.87,0Z"/>
          </g>
          <g id="_Group_" data-name=" Group ">
            <g id="_Group_2" data-name=" Group 2">
              <g id="_Group_3" data-name=" Group 3">
                <path id="_Path_" data-name=" Path " class="cls-6" d="M297.39,110.22c.06-4.5,2.42-8.66,6.25-11.02-2.43-3.47-6.36-5.59-10.59-5.73-4.46-.47-8.78,2.67-11.05,2.67s-5.81-2.62-9.58-2.54c-4.95.16-9.46,2.91-11.87,7.24-5.13,8.89-1.3,21.95,3.61,29.13,2.46,3.52,5.33,7.45,9.1,7.31,3.68-.15,5.06-2.35,9.5-2.35s5.69,2.35,9.53,2.26c3.95-.06,6.44-3.53,8.81-7.08,1.77-2.51,3.13-5.28,4.03-8.21-4.69-1.98-7.74-6.58-7.75-11.67Z"/>
                <path id="_Path_2" data-name=" Path 2" class="cls-6" d="M290.14,88.75c2.15-2.59,3.21-5.91,2.96-9.26-3.29.35-6.33,1.92-8.51,4.4-2.16,2.45-3.25,5.66-3.04,8.92,3.33.03,6.5-1.46,8.59-4.06Z"/>
              </g>
            </g>
            <g>
              <path class="cls-6" d="M343.92,128.37h-12.56l-3.02,8.91h-5.32l11.9-32.96h5.53l11.9,32.96h-5.41l-3.01-8.91ZM332.66,124.26h9.96l-4.91-14.46h-.14l-4.91,14.46Z"/>
              <path class="cls-6" d="M378.04,125.27c0,7.47-4,12.26-10.03,12.26-3.12.16-6.05-1.47-7.56-4.2h-.11v11.9h-4.93v-31.98h4.77v4h.09c1.57-2.72,4.51-4.35,7.65-4.25,6.1,0,10.12,4.82,10.12,12.27ZM372.98,125.27c0-4.86-2.51-8.06-6.35-8.06s-6.3,3.27-6.3,8.06,2.53,8.08,6.3,8.08,6.35-3.17,6.35-8.08Z"/>
              <path class="cls-6" d="M404.49,125.27c0,7.47-4,12.26-10.03,12.26-3.12.16-6.05-1.47-7.56-4.2h-.11v11.9h-4.93v-31.98h4.77v4h.09c1.57-2.72,4.51-4.35,7.65-4.25,6.1,0,10.12,4.82,10.12,12.27ZM399.42,125.27c0-4.86-2.51-8.06-6.35-8.06s-6.3,3.27-6.3,8.06,2.53,8.08,6.3,8.08,6.35-3.17,6.35-8.08h0Z"/>
              <path class="cls-6" d="M421.97,128.1c.37,3.27,3.54,5.41,7.88,5.41s7.15-2.15,7.15-5.09c0-2.56-1.8-4.09-6.07-5.14l-4.27-1.03c-6.05-1.46-8.86-4.29-8.86-8.88,0-5.69,4.96-9.59,11.99-9.59s11.74,3.91,11.9,9.59h-4.98c-.3-3.29-3.02-5.27-6.99-5.27s-6.69,2.01-6.69,4.93c0,2.33,1.74,3.7,5.98,4.75l3.63.89c6.76,1.6,9.57,4.32,9.57,9.14,0,6.17-4.91,10.03-12.72,10.03-7.31,0-12.24-3.77-12.56-9.73h5.05Z"/>
              <path class="cls-6" d="M452.85,107.56v5.69h4.57v3.91h-4.57v13.25c0,2.06.91,3.02,2.92,3.02.54,0,1.08-.05,1.62-.11v3.88c-.9.17-1.82.25-2.74.23-4.86,0-6.76-1.83-6.76-6.49v-13.77h-3.49v-3.91h3.49v-5.69h4.96Z"/>
              <path class="cls-6" d="M460.06,125.27c0-7.56,4.45-12.31,11.4-12.31s11.4,4.75,11.4,12.31-4.41,12.31-11.4,12.31-11.4-4.73-11.4-12.31ZM477.83,125.27c0-5.19-2.38-8.25-6.37-8.25s-6.37,3.08-6.37,8.25,2.37,8.24,6.37,8.24,6.37-3.04,6.37-8.24h0Z"/>
              <path class="cls-6" d="M486.92,113.25h4.7v4.09h.11c.66-2.63,3.07-4.44,5.78-4.34.57,0,1.14.06,1.69.18v4.61c-.72-.22-1.47-.32-2.22-.3-2.74-.11-5.06,2.02-5.17,4.76-.01.25,0,.51.03.76v14.25h-4.93v-24.03Z"/>
              <path class="cls-6" d="M521.95,130.22c-.66,4.36-4.91,7.36-10.35,7.36-6.99,0-11.33-4.68-11.33-12.2s4.36-12.42,11.12-12.42,10.83,4.57,10.83,11.85v1.69h-16.97v.3c-.3,3.44,2.24,6.48,5.68,6.79.26.02.52.03.78.02,2.39.22,4.65-1.15,5.55-3.38h4.68ZM505.28,123.05h12.01c.18-3.19-2.26-5.91-5.45-6.09-.15,0-.3-.01-.45,0-3.36-.02-6.1,2.69-6.12,6.05,0,.02,0,.03,0,.05Z"/>
            </g>
          </g>
        </g>
        <g id="_Group_4" data-name=" Group 4">
          <g>
            <path class="cls-6" d="M336.2,95.35h-9.88v-15.84h2.46v13.57h7.42v2.26Z"/>
            <path class="cls-6" d="M338.69,91.97c0-2.15,1.6-3.39,4.44-3.57l3.24-.19v-1.03c0-1.26-.83-1.97-2.45-1.97-1.32,0-2.23.48-2.49,1.33h-2.28c.24-2.05,2.17-3.37,4.88-3.37,3,0,4.69,1.49,4.69,4.02v8.17h-2.27v-1.68h-.19c-.77,1.23-2.14,1.94-3.59,1.88-1.98.21-3.76-1.23-3.96-3.22-.01-.12-.02-.24-.02-.36ZM346.37,90.95v-1l-2.92.19c-1.65.11-2.39.67-2.39,1.72s.93,1.7,2.22,1.7c1.55.16,2.93-.97,3.09-2.52,0-.03,0-.06,0-.09Z"/>
            <path class="cls-6" d="M351.82,89.37c0-3.78,1.94-6.17,4.96-6.17,1.52-.07,2.95.75,3.66,2.1h.18v-6.56h2.36v16.62h-2.26v-1.89h-.19c-.77,1.34-2.21,2.14-3.75,2.09-3.04,0-4.96-2.39-4.96-6.18ZM354.25,89.37c0,2.53,1.19,4.06,3.19,4.06s3.22-1.55,3.22-4.05-1.24-4.06-3.22-4.06-3.19,1.54-3.19,4.05h0Z"/>
            <path class="cls-6" d="M376.95,92.12c-.66,2.25-2.84,3.71-5.18,3.46-3,.08-5.49-2.29-5.57-5.28,0-.3,0-.59.05-.89-.4-3.02,1.71-5.79,4.73-6.19.26-.03.52-.05.78-.05,3.33,0,5.33,2.27,5.33,6.02v.82h-8.44v.13c-.15,1.74,1.14,3.27,2.88,3.41.1,0,.2.01.3.01,1.15.14,2.28-.43,2.84-1.45h2.27ZM368.65,88.27h6.04c.12-1.59-1.07-2.97-2.66-3.09-.09,0-.19,0-.28,0-1.69-.02-3.07,1.33-3.09,3.02,0,.03,0,.05,0,.08h0Z"/>
            <path class="cls-6" d="M380.26,83.4h2.27v1.9h.18c.61-1.4,2.04-2.25,3.57-2.13,2.14-.16,4.01,1.44,4.17,3.58.02.29.01.58-.03.86v7.74h-2.36v-7.14c0-1.92-.83-2.88-2.58-2.88-1.51-.07-2.8,1.1-2.87,2.61,0,.14,0,.28.01.42v6.99h-2.36v-11.95Z"/>
            <path class="cls-6" d="M400.23,79.87c-.05-.84.59-1.57,1.43-1.62.84-.05,1.57.59,1.62,1.43s-.59,1.57-1.43,1.62c-.03,0-.06,0-.09,0-.8.04-1.48-.58-1.52-1.38,0-.02,0-.04,0-.06ZM400.58,83.4h2.35v11.95h-2.35v-11.95Z"/>
            <path class="cls-6" d="M406.74,83.4h2.27v1.92h.18c.81-1.83,2.95-2.65,4.78-1.84.82.36,1.48,1.02,1.84,1.84h.19c.68-1.37,2.1-2.21,3.63-2.15,1.95-.16,3.67,1.29,3.83,3.25.02.23.02.47-.01.7v8.23h-2.36v-7.62c0-1.61-.77-2.4-2.32-2.4-1.34-.06-2.46.98-2.52,2.31,0,.06,0,.13,0,.19v7.52h-2.32v-7.85c.06-1.15-.83-2.13-1.98-2.18-.11,0-.22,0-.33,0-1.42.02-2.55,1.19-2.53,2.61,0,.03,0,.07,0,.1v7.31h-2.36v-11.95Z"/>
          </g>
        </g>
      </g>
    </g>
    <rect class="cls-1" width="685.16" height="159.85"/>
  </g>
</svg>