<?xml version="1.0" encoding="UTF-8"?>
<svg id="Ebene_2" data-name="Ebene 2" xmlns="http://www.w3.org/2000/svg" viewBox="0 0 685.16 250.36">
  <defs>
    <style>
      .cls-1 {
        fill: none;
      }

      .cls-1, .cls-2, .cls-3, .cls-4, .cls-5, .cls-6 {
        stroke-width: 0px;
      }

      .cls-2 {
        fill: #f9c626;
      }

      .cls-3 {
        fill: #3fc663;
      }

      .cls-4 {
        fill: #fff;
      }

      .cls-5 {
        fill: #e6007d;
      }

      .cls-6 {
        fill: #ff3947;
      }
    </style>
  </defs>
  <g id="Ebene_2-2" data-name="Ebene 2">
    <g>
      <g>
        <g>
          <circle class="cls-6" cx="110.39" cy="126.24" r="51.57"/>
          <g id="connect">
            <g id="connect-2" data-name="connect">
              <path class="cls-4" d="M122.61,151.71c-.9,0-1.81-.26-2.59-.79-2.02-1.37-5.96-3.66-9.61-3.66-3.89,0-7.72,2.28-9.66,3.65-1.13.8-2.59,1-3.9.53l-.1-.04c-1.92-.68-3.11-2.56-2.89-4.58.32-2.97.44-7.3-2.14-10.67-3.04-3.96-5.59-5.44-7.19-5.99-1.5-.51-2.56-1.82-2.76-3.38h0s-.01-.09-.01-.14c0-.04,0-.08-.01-.13h0c-.09-1.43.35-3.26,2.75-4.44,2.24-1.1,5.32-3.02,7.27-5.86,2.84-4.14,2.41-9.05,2.21-10.46-.24-1.71.29-3.23,1.42-4.07,1.58-1.17,3.74-1.22,5.36-.12,2.02,1.36,5.96,3.66,9.61,3.66,3.88,0,7.72-2.28,9.66-3.65,1.13-.79,2.59-.99,3.9-.53l.11.04c1.91.68,3.1,2.56,2.88,4.57-.32,2.97-.44,7.3,2.14,10.68,3.04,3.96,5.59,5.44,7.19,5.99,1.5.51,2.56,1.82,2.76,3.38h0s.01.09.01.14c0,.04,0,.08.01.13h0c.09,1.43-.35,3.26-2.75,4.44-2.24,1.1-5.32,3.01-7.27,5.86-2.84,4.14-2.41,9.05-2.21,10.46.24,1.71-.29,3.23-1.42,4.07-.82.61-1.8.92-2.77.92ZM110.41,144.67c4.13,0,8.3,2.23,11.07,4.1.72.48,1.67.46,2.36-.06.42-.31.48-1.07.4-1.62-.23-1.64-.73-7.39,2.64-12.29,2.27-3.31,5.75-5.48,8.27-6.72,1.18-.58,1.35-1.27,1.31-1.94v-.09c-.08-.59-.48-1.09-1.04-1.28-1.94-.66-4.98-2.39-8.42-6.87-3.15-4.11-3.03-9.12-2.66-12.53.09-.81-.4-1.58-1.17-1.85l-.11-.04c-.51-.18-1.09-.1-1.54.21-2.19,1.54-6.55,4.12-11.15,4.12-4.13,0-8.3-2.23-11.07-4.1-.71-.48-1.66-.46-2.36.06-.42.31-.48,1.07-.4,1.62.23,1.64.73,7.39-2.64,12.3-2.27,3.31-5.75,5.48-8.27,6.72-1.18.58-1.36,1.27-1.31,1.94v.09c.08.59.48,1.09,1.03,1.28,1.95.66,4.98,2.39,8.42,6.87,3.15,4.11,3.03,9.12,2.66,12.53-.09.81.4,1.58,1.17,1.85l.1.04c.52.18,1.1.11,1.55-.21,2.19-1.54,6.55-4.12,11.15-4.12Z"/>
              <g>
                <g id="smile">
                  <g>
                    <circle class="cls-4" cx="101.97" cy="117.87" r="1.73"/>
                    <circle class="cls-4" cx="107.55" cy="117.87" r="1.73"/>
                    <circle class="cls-4" cx="113.14" cy="117.87" r="1.73"/>
                    <circle class="cls-4" cx="118.72" cy="117.87" r="1.73"/>
                  </g>
                </g>
                <g id="smile-2" data-name="smile">
                  <g>
                    <circle class="cls-4" cx="101.97" cy="123.33" r="1.73"/>
                    <circle class="cls-4" cx="107.55" cy="123.33" r="1.73"/>
                    <circle class="cls-4" cx="113.14" cy="123.33" r="1.73"/>
                    <circle class="cls-4" cx="118.72" cy="123.33" r="1.73"/>
                  </g>
                </g>
                <g id="smile-3" data-name="smile">
                  <g>
                    <circle class="cls-4" cx="101.97" cy="128.79" r="1.73"/>
                    <circle class="cls-4" cx="107.55" cy="128.79" r="1.73"/>
                    <circle class="cls-4" cx="113.14" cy="128.79" r="1.73"/>
                    <circle class="cls-4" cx="118.72" cy="128.79" r="1.73"/>
                  </g>
                </g>
                <g id="smile-4" data-name="smile">
                  <g>
                    <circle class="cls-4" cx="101.97" cy="134.25" r="1.73"/>
                    <circle class="cls-4" cx="107.55" cy="134.25" r="1.73"/>
                    <circle class="cls-4" cx="113.14" cy="134.25" r="1.73"/>
                    <circle class="cls-4" cx="118.72" cy="134.25" r="1.73"/>
                  </g>
                </g>
              </g>
            </g>
          </g>
        </g>
        <g>
          <circle class="cls-3" cx="574.78" cy="126.24" r="51.57"/>
          <g id="connect-3" data-name="connect">
            <g id="connect-4" data-name="connect">
              <path class="cls-4" d="M587,151.71c-.9,0-1.81-.26-2.59-.79-2.02-1.37-5.96-3.66-9.61-3.66-3.89,0-7.72,2.28-9.66,3.65-1.13.8-2.59,1-3.9.53l-.1-.04c-1.92-.68-3.11-2.56-2.89-4.58.32-2.97.44-7.3-2.14-10.67-3.04-3.96-5.59-5.44-7.19-5.99-1.5-.51-2.56-1.82-2.76-3.38h0s-.01-.09-.01-.14c0-.04,0-.08-.01-.13h0c-.09-1.43.35-3.26,2.75-4.44,2.24-1.1,5.32-3.02,7.27-5.86,2.84-4.14,2.41-9.05,2.21-10.46-.24-1.71.29-3.23,1.42-4.07,1.58-1.17,3.74-1.22,5.36-.12,2.02,1.36,5.96,3.66,9.61,3.66,3.88,0,7.72-2.28,9.66-3.65,1.13-.79,2.59-.99,3.9-.53l.11.04c1.91.68,3.1,2.56,2.88,4.57-.32,2.97-.44,7.3,2.14,10.68,3.04,3.96,5.59,5.44,7.19,5.99,1.5.51,2.56,1.82,2.76,3.38h0s.01.09.01.14c0,.04,0,.08.01.13h0c.09,1.43-.35,3.26-2.75,4.44-2.24,1.1-5.32,3.01-7.27,5.86-2.84,4.14-2.41,9.05-2.21,10.46.24,1.71-.29,3.23-1.42,4.07-.82.61-1.8.92-2.77.92ZM574.8,144.67c4.13,0,8.3,2.23,11.07,4.1.72.48,1.67.46,2.36-.06.42-.31.48-1.07.4-1.62-.23-1.64-.73-7.39,2.64-12.29,2.27-3.31,5.75-5.48,8.27-6.72,1.18-.58,1.35-1.27,1.31-1.94v-.09c-.08-.59-.48-1.09-1.04-1.28-1.94-.66-4.98-2.39-8.42-6.87-3.15-4.11-3.03-9.12-2.66-12.53.09-.81-.4-1.58-1.17-1.85l-.11-.04c-.51-.18-1.09-.1-1.54.21-2.19,1.54-6.55,4.12-11.15,4.12-4.13,0-8.3-2.23-11.07-4.1-.71-.48-1.66-.46-2.36.06-.42.31-.48,1.07-.4,1.62.23,1.64.73,7.39-2.64,12.3-2.27,3.31-5.75,5.48-8.27,6.72-1.18.58-1.36,1.27-1.31,1.94v.09c.08.59.48,1.09,1.03,1.28,1.95.66,4.98,2.39,8.42,6.87,3.15,4.11,3.03,9.12,2.66,12.53-.09.81.4,1.58,1.17,1.85l.1.04c.52.18,1.1.11,1.55-.21,2.19-1.54,6.55-4.12,11.15-4.12Z"/>
              <g>
                <g id="smile-5" data-name="smile">
                  <g>
                    <circle class="cls-4" cx="566.36" cy="117.87" r="1.73"/>
                    <circle class="cls-4" cx="571.94" cy="117.87" r="1.73"/>
                    <circle class="cls-4" cx="577.53" cy="117.87" r="1.73"/>
                    <circle class="cls-4" cx="583.11" cy="117.87" r="1.73"/>
                  </g>
                </g>
                <g id="smile-6" data-name="smile">
                  <g>
                    <circle class="cls-4" cx="566.36" cy="123.33" r="1.73"/>
                    <circle class="cls-4" cx="571.94" cy="123.33" r="1.73"/>
                    <circle class="cls-4" cx="577.53" cy="123.33" r="1.73"/>
                    <circle class="cls-4" cx="583.11" cy="123.33" r="1.73"/>
                  </g>
                </g>
                <g id="smile-7" data-name="smile">
                  <g>
                    <circle class="cls-4" cx="566.36" cy="128.79" r="1.73"/>
                    <circle class="cls-4" cx="571.94" cy="128.79" r="1.73"/>
                    <circle class="cls-4" cx="577.53" cy="128.79" r="1.73"/>
                    <circle class="cls-4" cx="583.11" cy="128.79" r="1.73"/>
                  </g>
                </g>
                <g id="smile-8" data-name="smile">
                  <g>
                    <circle class="cls-4" cx="566.36" cy="134.25" r="1.73"/>
                    <circle class="cls-4" cx="571.94" cy="134.25" r="1.73"/>
                    <circle class="cls-4" cx="577.53" cy="134.25" r="1.73"/>
                    <circle class="cls-4" cx="583.11" cy="134.25" r="1.73"/>
                  </g>
                </g>
              </g>
            </g>
          </g>
        </g>
      </g>
      <g>
        <rect class="cls-2" x="221.72" y="5.38" width="241.72" height="241.72" rx="12" ry="12"/>
        <g>
          <rect class="cls-4" x="239.17" y="21.87" width="33.34" height="33.34"/>
          <rect class="cls-4" x="282.51" y="21.87" width="33.34" height="33.34"/>
          <rect class="cls-4" x="325.85" y="21.87" width="33.34" height="33.34"/>
          <rect class="cls-4" x="369.2" y="21.87" width="33.34" height="33.34"/>
          <rect class="cls-4" x="412.54" y="21.87" width="33.34" height="33.34"/>
          <rect class="cls-4" x="239.17" y="65.72" width="33.34" height="33.34"/>
          <rect class="cls-4" x="282.51" y="65.72" width="33.34" height="33.34"/>
          <rect class="cls-4" x="325.85" y="65.72" width="33.34" height="33.34"/>
          <rect class="cls-4" x="369.2" y="65.72" width="33.34" height="33.34"/>
          <rect class="cls-4" x="412.54" y="65.72" width="33.34" height="33.34"/>
          <rect class="cls-4" x="239.17" y="109.57" width="33.34" height="33.34"/>
          <rect class="cls-5" x="282.51" y="109.57" width="33.34" height="33.34"/>
          <rect class="cls-4" x="325.85" y="109.57" width="33.34" height="33.34"/>
          <rect class="cls-4" x="369.2" y="109.57" width="33.34" height="33.34"/>
          <rect class="cls-4" x="412.54" y="109.57" width="33.34" height="33.34"/>
          <rect class="cls-5" x="239.17" y="153.42" width="33.34" height="33.34"/>
          <rect class="cls-5" x="282.51" y="153.42" width="33.34" height="33.34"/>
          <rect class="cls-5" x="325.85" y="153.42" width="33.34" height="33.34"/>
          <rect class="cls-4" x="369.2" y="153.42" width="33.34" height="33.34"/>
          <rect class="cls-4" x="412.54" y="153.42" width="33.34" height="33.34"/>
          <rect class="cls-5" x="239.17" y="197.27" width="33.34" height="33.34"/>
          <rect class="cls-5" x="282.51" y="197.27" width="33.34" height="33.34"/>
          <rect class="cls-5" x="325.85" y="197.27" width="33.34" height="33.34"/>
          <rect class="cls-5" x="369.2" y="197.27" width="33.34" height="33.34"/>
          <rect class="cls-5" x="412.54" y="197.27" width="33.34" height="33.34"/>
        </g>
      </g>
    </g>
    <rect class="cls-1" width="685.16" height="250.36"/>
  </g>
</svg>